<?xml version="1.0" encoding="UTF-8"?>
<svg id="Layer_2" data-name="Layer 2" xmlns="http://www.w3.org/2000/svg" viewBox="0 0 765.04 185.06">
  <defs>
    <style>
      .cls-1 {
        fill: #f3ea50;
      }

      .cls-2 {
        fill: #b256a1;
      }

      .cls-3 {
        fill: #21409a;
      }

      .cls-4 {
        opacity: .8;
      }
    </style>
  </defs>
  <g id="Layer_2-2" data-name="Layer 2">
    <g>
      <g>
        <g>
          <path class="cls-1" d="M375.01,48.79l-2.13,18.13h-20.53l-6.4,45.33c-.71,4.09-.71,7.11,0,9.07,.71,1.96,2.53,2.93,5.47,2.93s5.47-.4,7.6-1.2c2.13-.8,3.55-1.29,4.27-1.47v17.6c-.71,.18-1.78,.62-3.2,1.33-1.42,.71-3.03,1.42-4.8,2.13-4.45,1.95-9.43,2.93-14.93,2.93-8.53,0-14.31-2.27-17.33-6.8-3.02-4.53-3.82-12.22-2.4-23.07l7.2-48.8h-10.13l2.4-18.13h10.13l3.2-22.67,25.33-4-4,26.67h20.27Z"/>
          <path class="cls-1" d="M423.01,126.65c7.82,0,15.64-2.22,23.47-6.67l2.67,16.53c-4.27,3.2-11.38,5.78-21.33,7.73-3.73,.89-8,1.33-12.8,1.33s-9.47-.89-14-2.67c-4.53-1.77-8.22-4.53-11.07-8.27-6.58-8.53-8.71-20.53-6.4-36,2.31-16.71,7.82-29.77,16.53-39.2,8.17-8.53,17.77-12.8,28.8-12.8,16.71,0,26.58,8,29.6,24,1.6,8.36,.98,17.96-1.87,28.8-.53,2.31-.98,3.65-1.33,4h-47.73c-1.25,8.18-.31,14.09,2.8,17.73,3.11,3.65,7.33,5.47,12.67,5.47Zm10.93-57.33c-1.78-3.38-4.31-5.07-7.6-5.07s-6.58,1.73-9.87,5.2c-3.29,3.47-5.56,9.65-6.8,18.53h25.07c1.24-9.07,.98-15.29-.8-18.67Z"/>
          <path class="cls-1" d="M492.34,143.19h-24.8l13.33-94.4h21.87l-.8,12.53h.27c2.67-4.27,6.04-7.82,10.13-10.67,4.09-2.84,7.64-4.27,10.67-4.27s5.02,.22,6,.67c.97,.45,1.91,.85,2.8,1.2l-5.07,21.6c-1.07-.17-2.45-.53-4.13-1.07-1.69-.53-3.6-.8-5.73-.8s-4.36,.71-6.67,2.13c-2.31,1.43-5.25,3.73-8.8,6.93l-9.07,66.13Z"/>
          <path class="cls-1" d="M604.87,26.65c-2.13-1.07-5.2-1.6-9.2-1.6s-6.71,1.2-8.13,3.6c-1.42,2.4-2.58,6.62-3.47,12.67l-1.07,7.47h17.07l-2.93,18.13h-16.53l-16.8,118.13h-24.8l16.8-118.13h-10.13l2.4-18.13h9.87l1.6-10.93c1.6-11.55,4.75-19.87,9.47-24.93,4.71-5.07,10.62-7.6,17.73-7.6,9.24,0,16.35,1.25,21.33,3.73-.71,5.33-1.78,11.2-3.2,17.6Z"/>
          <path class="cls-1" d="M647.52,126.65c7.82,0,15.64-2.22,23.47-6.67l2.67,16.53c-4.27,3.2-11.38,5.78-21.33,7.73-3.73,.89-8,1.33-12.8,1.33s-9.47-.89-14-2.67c-4.53-1.77-8.22-4.53-11.07-8.27-6.58-8.53-8.71-20.53-6.4-36,2.31-16.71,7.82-29.77,16.53-39.2,8.17-8.53,17.77-12.8,28.8-12.8,16.71,0,26.58,8,29.6,24,1.6,8.36,.98,17.96-1.87,28.8-.53,2.31-.98,3.65-1.33,4h-47.73c-1.25,8.18-.31,14.09,2.8,17.73,3.11,3.65,7.33,5.47,12.67,5.47Zm10.93-57.33c-1.78-3.38-4.31-5.07-7.6-5.07s-6.58,1.73-9.87,5.2c-3.29,3.47-5.56,9.65-6.8,18.53h25.07c1.24-9.07,.98-15.29-.8-18.67Z"/>
          <path class="cls-1" d="M716.85,143.19h-24.8l18.4-132.27,25.33-3.47-18.93,135.73Z"/>
          <path class="cls-1" d="M756.45,123.45c2.93,0,5.2,.93,6.8,2.8,1.6,1.87,2.13,4.45,1.6,7.73-.53,3.29-1.87,5.91-4,7.87-2.13,1.95-4.67,2.93-7.6,2.93s-5.25-.98-6.93-2.93c-1.69-1.95-2.31-4.57-1.87-7.87,.44-3.29,1.82-5.87,4.13-7.73,2.31-1.87,4.93-2.8,7.87-2.8Z"/>
        </g>
        <path class="cls-1" d="M21.4,48.42h21.87l-1.07,12.53c.89-.71,2.09-1.91,3.6-3.6,1.51-1.69,3.33-3.33,5.47-4.93,5.51-4.09,11.11-6.13,16.8-6.13s9.95,1.02,12.8,3.07c2.84,2.05,4.62,5.83,5.33,11.33,3.55-5.15,9.24-9.42,17.07-12.8,2.84-1.07,5.87-1.6,9.07-1.6,8,0,13.42,2.49,16.27,7.47,2.84,4.98,3.47,13.33,1.87,25.07l-8.53,64h-24.8l8.27-61.87c.89-4.09,.98-7.29,.27-9.6-.71-2.31-2.67-3.47-5.87-3.47-2.67,0-5.16,.98-7.47,2.93-3.56,2.85-5.78,5.33-6.67,7.47l-8.8,64.53h-24l8.8-61.87c.71-4.09,.71-7.29,0-9.6-.71-2.31-2.76-3.47-6.13-3.47-2.85,0-5.33,.98-7.47,2.93-3.56,3.2-5.69,5.69-6.4,7.47l-9.07,64.53H8.07L21.4,48.42Z"/>
        <g>
          <path class="cls-1" d="M233.8,128.32c-1.23,8.05-3.56,14.9-7,20.57-3.44,5.66-7.54,10.14-12.28,13.42-4.75,3.28-9.68,5.64-14.8,7.07-5.12,1.43-10.13,2.13-15.01,2.11-6.82-.03-13.25-1.41-19.29-4.15-6.04-2.74-10.73-7.37-14.08-13.9-3.35-6.53-4.23-15.01-2.63-25.46l7.91-51.88,24.24,.09-6.79,44.55c-.94,6.19-.96,11.32-.05,15.37,.91,4.05,2.59,7.02,5.04,8.91,2.44,1.89,5.53,2.84,9.25,2.85,3.56,.01,6.86-.9,9.9-2.74,3.03-1.84,5.62-4.77,7.77-8.79,2.14-4.02,3.69-9.12,4.63-15.32l6.81-44.69,24.3,.09-7.91,51.88Z"/>
          <path class="cls-1" d="M213.67,90.86c1.23-8.05,3.56-14.9,7-20.57,3.44-5.66,7.54-10.14,12.28-13.42,4.75-3.28,9.68-5.64,14.8-7.07,5.12-1.43,10.12-2.13,15.01-2.11,6.82,.03,13.25,1.41,19.29,4.15,6.04,2.74,10.73,7.37,14.08,13.9,3.35,6.53,4.23,15.01,2.63,25.46l-7.91,51.88-24.24-.09,6.79-44.55c.94-6.19,.96-11.32,.05-15.37-.91-4.05-2.59-7.02-5.04-8.91-2.45-1.89-5.53-2.84-9.25-2.85-3.56-.01-6.86,.9-9.9,2.74-3.03,1.84-5.62,4.77-7.77,8.79-2.15,4.02-3.69,9.12-4.63,15.32l-6.81,44.69-24.3-.1,7.91-51.88Z"/>
        </g>
      </g>
      <g>
        <g>
          <path class="cls-3" d="M366.94,43.47l-2.13,18.13h-20.53l-6.4,45.33c-.71,4.09-.71,7.11,0,9.07,.71,1.96,2.53,2.93,5.47,2.93s5.47-.4,7.6-1.2c2.13-.8,3.55-1.29,4.27-1.47v17.6c-.71,.18-1.78,.62-3.2,1.33-1.42,.71-3.03,1.42-4.8,2.13-4.45,1.95-9.43,2.93-14.93,2.93-8.53,0-14.31-2.27-17.33-6.8-3.02-4.53-3.82-12.22-2.4-23.07l7.2-48.8h-10.13l2.4-18.13h10.13l3.2-22.67,25.33-4-4,26.67h20.27Z"/>
          <path class="cls-3" d="M414.94,121.33c7.82,0,15.64-2.22,23.47-6.67l2.67,16.53c-4.27,3.2-11.38,5.78-21.33,7.73-3.73,.89-8,1.33-12.8,1.33s-9.47-.89-14-2.67c-4.53-1.77-8.22-4.53-11.07-8.27-6.58-8.53-8.71-20.53-6.4-36,2.31-16.71,7.82-29.77,16.53-39.2,8.17-8.53,17.77-12.8,28.8-12.8,16.71,0,26.58,8,29.6,24,1.6,8.36,.98,17.96-1.87,28.8-.53,2.31-.98,3.65-1.33,4h-47.73c-1.25,8.18-.31,14.09,2.8,17.73,3.11,3.65,7.33,5.47,12.67,5.47Zm10.93-57.33c-1.78-3.38-4.31-5.07-7.6-5.07s-6.58,1.73-9.87,5.2c-3.29,3.47-5.56,9.65-6.8,18.53h25.07c1.24-9.07,.98-15.29-.8-18.67Z"/>
          <path class="cls-3" d="M484.27,137.87h-24.8l13.33-94.4h21.87l-.8,12.53h.27c2.67-4.27,6.04-7.82,10.13-10.67,4.09-2.84,7.64-4.27,10.67-4.27s5.02,.22,6,.67c.97,.45,1.91,.85,2.8,1.2l-5.07,21.6c-1.07-.17-2.45-.53-4.13-1.07-1.69-.53-3.6-.8-5.73-.8s-4.36,.71-6.67,2.13c-2.31,1.43-5.25,3.73-8.8,6.93l-9.07,66.13Z"/>
          <path class="cls-3" d="M596.8,21.33c-2.13-1.07-5.2-1.6-9.2-1.6s-6.71,1.2-8.13,3.6c-1.42,2.4-2.58,6.62-3.47,12.67l-1.07,7.47h17.07l-2.93,18.13h-16.53l-16.8,118.13h-24.8l16.8-118.13h-10.13l2.4-18.13h9.87l1.6-10.93c1.6-11.55,4.75-19.87,9.47-24.93,4.71-5.07,10.62-7.6,17.73-7.6,9.24,0,16.35,1.25,21.33,3.73-.71,5.33-1.78,11.2-3.2,17.6Z"/>
          <path class="cls-3" d="M639.45,121.33c7.82,0,15.64-2.22,23.47-6.67l2.67,16.53c-4.27,3.2-11.38,5.78-21.33,7.73-3.73,.89-8,1.33-12.8,1.33s-9.47-.89-14-2.67c-4.53-1.77-8.22-4.53-11.07-8.27-6.58-8.53-8.71-20.53-6.4-36,2.31-16.71,7.82-29.77,16.53-39.2,8.17-8.53,17.77-12.8,28.8-12.8,16.71,0,26.58,8,29.6,24,1.6,8.36,.98,17.96-1.87,28.8-.53,2.31-.98,3.65-1.33,4h-47.73c-1.25,8.18-.31,14.09,2.8,17.73,3.11,3.65,7.33,5.47,12.67,5.47Zm10.93-57.33c-1.78-3.38-4.31-5.07-7.6-5.07s-6.58,1.73-9.87,5.2c-3.29,3.47-5.56,9.65-6.8,18.53h25.07c1.24-9.07,.98-15.29-.8-18.67Z"/>
          <path class="cls-3" d="M708.78,137.87h-24.8L702.38,5.6l25.33-3.47-18.93,135.73Z"/>
          <path class="cls-3" d="M748.37,118.13c2.93,0,5.2,.93,6.8,2.8,1.6,1.87,2.13,4.45,1.6,7.73-.53,3.29-1.87,5.91-4,7.87-2.13,1.95-4.67,2.93-7.6,2.93s-5.25-.98-6.93-2.93c-1.69-1.95-2.31-4.57-1.87-7.87,.44-3.29,1.82-5.87,4.13-7.73,2.31-1.87,4.93-2.8,7.87-2.8Z"/>
        </g>
        <path class="cls-3" d="M13.33,43.1h21.87l-1.07,12.53c.89-.71,2.09-1.91,3.6-3.6,1.51-1.69,3.33-3.33,5.47-4.93,5.51-4.09,11.11-6.13,16.8-6.13s9.95,1.02,12.8,3.07c2.84,2.05,4.62,5.83,5.33,11.33,3.55-5.15,9.24-9.42,17.07-12.8,2.84-1.07,5.87-1.6,9.07-1.6,8,0,13.42,2.49,16.27,7.47,2.84,4.98,3.47,13.33,1.87,25.07l-8.53,64h-24.8l8.27-61.87c.89-4.09,.98-7.29,.27-9.6-.71-2.31-2.67-3.47-5.87-3.47-2.67,0-5.16,.98-7.47,2.93-3.56,2.85-5.78,5.33-6.67,7.47l-8.8,64.53h-24l8.8-61.87c.71-4.09,.71-7.29,0-9.6-.71-2.31-2.76-3.47-6.13-3.47-2.85,0-5.33,.98-7.47,2.93-3.56,3.2-5.69,5.69-6.4,7.47l-9.07,64.53H0L13.33,43.1Z"/>
        <g>
          <path class="cls-3" d="M225.73,123.52c-1.23,8.05-3.56,14.9-7,20.57-3.44,5.66-7.54,10.14-12.28,13.42-4.75,3.28-9.68,5.64-14.8,7.07-5.12,1.43-10.13,2.13-15.01,2.11-6.82-.03-13.25-1.41-19.29-4.15-6.04-2.74-10.73-7.37-14.08-13.9-3.35-6.53-4.23-15.01-2.63-25.46l7.91-51.88,24.24,.09-6.79,44.55c-.94,6.19-.96,11.32-.05,15.37,.91,4.05,2.59,7.02,5.04,8.91,2.44,1.89,5.53,2.84,9.25,2.85,3.56,.01,6.86-.9,9.9-2.74,3.03-1.84,5.62-4.77,7.77-8.79,2.14-4.02,3.69-9.12,4.63-15.32l6.81-44.69,24.3,.09-7.91,51.88Z"/>
          <path class="cls-3" d="M205.6,86.06c1.23-8.05,3.56-14.9,7-20.57,3.44-5.66,7.54-10.14,12.28-13.42,4.75-3.28,9.68-5.64,14.8-7.07,5.12-1.43,10.12-2.13,15.01-2.11,6.82,.03,13.25,1.41,19.29,4.15,6.04,2.74,10.73,7.37,14.08,13.9,3.35,6.53,4.23,15.01,2.63,25.46l-7.91,51.88-24.24-.09,6.79-44.55c.94-6.19,.96-11.32,.05-15.37-.91-4.05-2.59-7.02-5.04-8.91-2.45-1.89-5.53-2.84-9.25-2.85-3.56-.01-6.86,.9-9.9,2.74-3.03,1.84-5.62,4.77-7.77,8.79-2.15,4.02-3.69,9.12-4.63,15.32l-6.81,44.69-24.3-.1,7.91-51.88Z"/>
        </g>
      </g>
      <g class="cls-4">
        <g>
          <path class="cls-2" d="M371.65,47.15l-2.13,18.13h-20.53l-6.4,45.33c-.71,4.09-.71,7.11,0,9.07,.71,1.96,2.53,2.93,5.47,2.93s5.47-.4,7.6-1.2c2.13-.8,3.55-1.29,4.27-1.47v17.6c-.71,.18-1.78,.62-3.2,1.33-1.42,.71-3.03,1.42-4.8,2.13-4.45,1.95-9.43,2.93-14.93,2.93-8.53,0-14.31-2.27-17.33-6.8-3.02-4.53-3.82-12.22-2.4-23.07l7.2-48.8h-10.13l2.4-18.13h10.13l3.2-22.67,25.33-4-4,26.67h20.27Z"/>
          <path class="cls-2" d="M419.64,125.02c7.82,0,15.64-2.22,23.47-6.67l2.67,16.53c-4.27,3.2-11.38,5.78-21.33,7.73-3.73,.89-8,1.33-12.8,1.33s-9.47-.89-14-2.67c-4.53-1.77-8.22-4.53-11.07-8.27-6.58-8.53-8.71-20.53-6.4-36,2.31-16.71,7.82-29.77,16.53-39.2,8.17-8.53,17.77-12.8,28.8-12.8,16.71,0,26.58,8,29.6,24,1.6,8.36,.98,17.96-1.87,28.8-.53,2.31-.98,3.65-1.33,4h-47.73c-1.25,8.18-.31,14.09,2.8,17.73,3.11,3.65,7.33,5.47,12.67,5.47Zm10.93-57.33c-1.78-3.38-4.31-5.07-7.6-5.07s-6.58,1.73-9.87,5.2c-3.29,3.47-5.56,9.65-6.8,18.53h25.07c1.24-9.07,.98-15.29-.8-18.67Z"/>
          <path class="cls-2" d="M488.97,141.55h-24.8l13.33-94.4h21.87l-.8,12.53h.27c2.67-4.27,6.04-7.82,10.13-10.67,4.09-2.84,7.64-4.27,10.67-4.27s5.02,.22,6,.67c.97,.45,1.91,.85,2.8,1.2l-5.07,21.6c-1.07-.17-2.45-.53-4.13-1.07-1.69-.53-3.6-.8-5.73-.8s-4.36,.71-6.67,2.13c-2.31,1.43-5.25,3.73-8.8,6.93l-9.07,66.13Z"/>
          <path class="cls-2" d="M601.51,25.02c-2.13-1.07-5.2-1.6-9.2-1.6s-6.71,1.2-8.13,3.6c-1.42,2.4-2.58,6.62-3.47,12.67l-1.07,7.47h17.07l-2.93,18.13h-16.53l-16.8,118.13h-24.8l16.8-118.13h-10.13l2.4-18.13h9.87l1.6-10.93c1.6-11.55,4.75-19.87,9.47-24.93,4.71-5.07,10.62-7.6,17.73-7.6,9.24,0,16.35,1.25,21.33,3.73-.71,5.33-1.78,11.2-3.2,17.6Z"/>
          <path class="cls-2" d="M644.15,125.02c7.82,0,15.64-2.22,23.47-6.67l2.67,16.53c-4.27,3.2-11.38,5.78-21.33,7.73-3.73,.89-8,1.33-12.8,1.33s-9.47-.89-14-2.67c-4.53-1.77-8.22-4.53-11.07-8.27-6.58-8.53-8.71-20.53-6.4-36,2.31-16.71,7.82-29.77,16.53-39.2,8.17-8.53,17.77-12.8,28.8-12.8,16.71,0,26.58,8,29.6,24,1.6,8.36,.98,17.96-1.87,28.8-.53,2.31-.98,3.65-1.33,4h-47.73c-1.25,8.18-.31,14.09,2.8,17.73,3.11,3.65,7.33,5.47,12.67,5.47Zm10.93-57.33c-1.78-3.38-4.31-5.07-7.6-5.07s-6.58,1.73-9.87,5.2c-3.29,3.47-5.56,9.65-6.8,18.53h25.07c1.24-9.07,.98-15.29-.8-18.67Z"/>
          <path class="cls-2" d="M713.48,141.55h-24.8l18.4-132.27,25.33-3.47-18.93,135.73Z"/>
          <path class="cls-2" d="M753.08,121.82c2.93,0,5.2,.93,6.8,2.8,1.6,1.87,2.13,4.45,1.6,7.73-.53,3.29-1.87,5.91-4,7.87-2.13,1.95-4.67,2.93-7.6,2.93s-5.25-.98-6.93-2.93c-1.69-1.95-2.31-4.57-1.87-7.87,.44-3.29,1.82-5.87,4.13-7.73,2.31-1.87,4.93-2.8,7.87-2.8Z"/>
        </g>
        <path class="cls-2" d="M18.04,46.78h21.87l-1.07,12.53c.89-.71,2.09-1.91,3.6-3.6,1.51-1.69,3.33-3.33,5.47-4.93,5.51-4.09,11.11-6.13,16.8-6.13s9.95,1.02,12.8,3.07c2.84,2.05,4.62,5.83,5.33,11.33,3.55-5.15,9.24-9.42,17.07-12.8,2.84-1.07,5.87-1.6,9.07-1.6,8,0,13.42,2.49,16.27,7.47,2.84,4.98,3.47,13.33,1.87,25.07l-8.53,64h-24.8l8.27-61.87c.89-4.09,.98-7.29,.27-9.6-.71-2.31-2.67-3.47-5.87-3.47-2.67,0-5.16,.98-7.47,2.93-3.56,2.85-5.78,5.33-6.67,7.47l-8.8,64.53h-24l8.8-61.87c.71-4.09,.71-7.29,0-9.6-.71-2.31-2.76-3.47-6.13-3.47-2.85,0-5.33,.98-7.47,2.93-3.56,3.2-5.69,5.69-6.4,7.47l-9.07,64.53H4.71L18.04,46.78Z"/>
        <g>
          <path class="cls-2" d="M230.43,126.84c-1.23,8.05-3.56,14.9-7,20.57-3.44,5.66-7.54,10.14-12.28,13.42-4.75,3.28-9.68,5.64-14.8,7.07-5.12,1.43-10.13,2.13-15.01,2.11-6.82-.03-13.25-1.41-19.29-4.15-6.04-2.74-10.73-7.37-14.08-13.9-3.35-6.53-4.23-15.01-2.63-25.46l7.91-51.88,24.24,.09-6.79,44.55c-.94,6.19-.96,11.32-.05,15.37,.91,4.05,2.59,7.02,5.04,8.91,2.44,1.89,5.53,2.84,9.25,2.85,3.56,.01,6.86-.9,9.9-2.74,3.03-1.84,5.62-4.77,7.77-8.79,2.14-4.02,3.69-9.12,4.63-15.32l6.81-44.69,24.3,.09-7.91,51.88Z"/>
          <path class="cls-2" d="M210.31,89.39c1.23-8.05,3.56-14.9,7-20.57,3.44-5.66,7.54-10.14,12.28-13.42,4.75-3.28,9.68-5.64,14.8-7.07,5.12-1.43,10.12-2.13,15.01-2.11,6.82,.03,13.25,1.41,19.29,4.15,6.04,2.74,10.73,7.37,14.08,13.9,3.35,6.53,4.23,15.01,2.63,25.46l-7.91,51.88-24.24-.09,6.79-44.55c.94-6.19,.96-11.32,.05-15.37-.91-4.05-2.59-7.02-5.04-8.91-2.45-1.89-5.53-2.84-9.25-2.85-3.56-.01-6.86,.9-9.9,2.74-3.03,1.84-5.62,4.77-7.77,8.79-2.15,4.02-3.69,9.12-4.63,15.32l-6.81,44.69-24.3-.1,7.91-51.88Z"/>
        </g>
      </g>
    </g>
  </g>
</svg>