<?xml version="1.0" encoding="UTF-8"?>
<svg id="Layer_2" data-name="Layer 2" xmlns="http://www.w3.org/2000/svg" viewBox="0 0 258.28 231.09">
  <defs>
    <style>
      .cls-1 {
        fill: #eae069;
      }

      .cls-2 {
        fill: #445f96;
      }

      .cls-3 {
        fill: #b256a1;
        opacity: .6;
      }
    </style>
  </defs>
  <g id="Layer_5" data-name="Layer 5">
    <g>
      <path class="cls-1" d="M83.86,231.04c-38.96-1.44-67.65-30.06-63.97-63.81L31.82,57.81l57.1,2.1-11.94,109.42c-.71,6.47,4.8,11.97,12.27,12.24,7.47,.28,14.13-4.77,14.83-11.24l9.7-88.9c3.82-35,39.8-62.27,80.2-60.78,38.96,1.44,67.65,30.06,63.97,63.81l-10.57,96.88-57.1-2.1,10.57-96.88c.71-6.47-4.8-11.96-12.27-12.24-8.92-.33-16.87,5.69-17.71,13.42l-9.7,88.9c-3.68,33.75-38.37,60.04-77.32,58.6Z"/>
      <path class="cls-2" d="M64.29,210.45C25.33,209.01-3.36,180.39,.32,146.64L12.25,37.22l57.1,2.1-11.94,109.42c-.71,6.47,4.8,11.97,12.27,12.24,7.47,.28,14.13-4.77,14.83-11.24l9.7-88.9C98.04,25.84,134.01-1.43,174.42,.06c38.96,1.44,67.65,30.06,63.97,63.81l-10.57,96.88-57.1-2.1,10.57-96.88c.71-6.47-4.8-11.96-12.27-12.24-8.92-.33-16.87,5.69-17.71,13.42l-9.7,88.9c-3.68,33.75-38.37,60.04-77.32,58.6Z"/>
      <path class="cls-3" d="M78.48,224.43c-38.96-1.44-67.65-30.06-63.97-63.81L26.44,51.2l57.1,2.1-11.94,109.42c-.71,6.47,4.8,11.97,12.27,12.24,7.47,.28,14.13-4.77,14.83-11.24l9.7-88.9c3.82-35,39.8-62.27,80.2-60.78,38.96,1.44,67.65,30.06,63.97,63.81l-10.57,96.88-57.1-2.1,10.57-96.88c.71-6.47-4.8-11.96-12.27-12.24-8.92-.33-16.87,5.69-17.71,13.42l-9.7,88.9c-3.68,33.75-38.37,60.04-77.32,58.6Z"/>
    </g>
  </g>
</svg>