<?xml version="1.0" encoding="UTF-8"?>
<svg id="Layer_2" data-name="Layer 2" xmlns="http://www.w3.org/2000/svg" viewBox="0 0 249.71 221.51">
  <defs>
    <style>
      .cls-1 {
        fill: none;
        stroke: #f1f2f2;
        stroke-miterlimit: 10;
        stroke-width: 11px;
      }
    </style>
  </defs>
  <g id="Layer_5" data-name="Layer 5">
    <path class="cls-1" d="M69.79,215.95c-38.96-1.44-67.65-30.06-63.97-63.81L17.75,42.72l57.1,2.1-11.94,109.42c-.71,6.47,4.8,11.97,12.27,12.24s14.13-4.77,14.83-11.24l9.7-88.9c3.82-35,39.8-62.27,80.2-60.78,38.96,1.44,67.65,30.06,63.97,63.81l-10.57,96.88-57.1-2.1,10.57-96.88c.71-6.47-4.8-11.96-12.27-12.24-8.92-.33-16.87,5.69-17.71,13.42l-9.7,88.9c-3.68,33.75-38.37,60.04-77.32,58.6Z"/>
  </g>
</svg>